<?xml version="1.0" encoding="utf-8"?>
<!-- Generator: Adobe Illustrator 18.1.1, SVG Export Plug-In . SVG Version: 6.00 Build 0)  -->
<svg version="1.1" id="Layer_1" xmlns="http://www.w3.org/2000/svg" xmlns:xlink="http://www.w3.org/1999/xlink" x="0px" y="0px"
	 viewBox="0 0 103.8 84.9" enable-background="new 0 0 103.8 84.9" xml:space="preserve">
<g>
	<path fill="#FFDE11" d="M51.9,5.4C35.1,23.4,33,36,38.4,53.2c0.6,2,1.5,2.6,1.2,5.2c-0.1,0.8,2.8,5.4,3.7,5.8
		c2.1,0.8,2.1,0.4,3.8,1.6c13.7,9.6,31.7,9.8,48.7,2.2L51.9,5.4z"/>
	<g>
		<path fill="#FFDE11" d="M50.3,30c-1.1-5-1.3-9.6-0.6-13.5c0.6-3.8,2-7,3.9-9.3c1.9-2.3,4.3-3.9,7.2-4.6c2.7-0.7,5.9-0.7,9.3,0.2
			c3.3,0.9,6.6,2.5,9.7,4.6c3,2.1,6,4.7,8.6,7.7c2.6,2.9,5,6.3,7.1,9.8c2,3.6,3.7,7.4,5,11.4c1.2,4.1,1.9,7.9,2,11.5
			c0.1,3.6-0.4,7-1.4,9.9c-1,3-2.7,5.4-4.9,7.2c-2.3,1.9-5.1,3-8.5,3.1c-3.5,0.2-7.2-0.7-11-2.6c-3.8-1.9-7.6-4.6-11.2-8.1
			c-3.6-3.5-6.8-7.8-9.4-12.5C53.4,40.1,51.4,35.1,50.3,30 M101.7,36.4c-1.3-4.2-3.1-8.3-5.3-12.1c-2.2-3.8-4.7-7.3-7.5-10.4
			C86.1,10.8,83,8,79.8,5.8c-3.3-2.3-6.8-4-10.3-4.9c-3.6-1-7-1.1-9.9-0.3c-3.1,0.8-5.7,2.4-7.7,4.8c-2.1,2.5-3.6,5.9-4.3,9.9
			c-0.7,4.2-0.6,9.1,0.6,14.5c1.2,5.5,3.3,10.9,6.2,16c2.8,5,6.3,9.6,10.1,13.4c3.8,3.8,7.9,6.7,12,8.7c4,1.9,8,2.8,11.8,2.6
			c3.6-0.2,6.6-1.5,9-3.5c2.3-1.9,4-4.6,5.1-7.8c1.1-3.1,1.5-6.6,1.4-10.5C103.7,44.8,103,40.7,101.7,36.4"/>
		<path fill="#FFFFFF" d="M54.8,35.1c-0.1-0.5-0.2-1-0.2-1.4c0-0.4,0-0.8,0-1.1c0-0.3,0.1-0.5,0.2-0.7c0.1-0.2,0.3-0.2,0.5-0.2
			c0.2,0,0.6,0.1,1,0.1c0.4,0,0.9,0.1,1.3,0.2c0.5,0.1,1,0.1,1.6,0.2c0.5,0.1,1.1,0.1,1.6,0.2l13.4,1.4c0.3,0,0.6,0.1,0.8,0.2
			c0.2,0.1,0.4,0.2,0.6,0.4c0.2,0.1,0.3,0.3,0.5,0.5c0.1,0.2,0.2,0.4,0.3,0.6c0,0.1,0.1,0.3,0.1,0.4c0,0.1,0,0.3,0,0.4
			c0,0.1,0,0.3-0.1,0.4c0,0.1-0.1,0.3-0.1,0.4l-5,12.6c-0.2,0.5-0.4,1-0.6,1.5c-0.2,0.5-0.4,1-0.6,1.5c-0.2,0.5-0.3,0.9-0.5,1.3
			c-0.1,0.4-0.3,0.7-0.3,0.9c-0.1,0.2-0.3,0.3-0.5,0.3c-0.2,0-0.6-0.1-0.9-0.2c-0.4-0.2-0.8-0.4-1.2-0.8c-0.4-0.3-0.9-0.7-1.4-1.2
			c0,0-0.2-0.2-0.5-0.6c-0.3-0.4-0.8-0.9-1.4-1.6c-0.6-0.7-1.2-1.5-1.9-2.5c-0.7-0.9-1.4-2-2.1-3.1c-0.7-1.1-1.3-2.2-1.8-3.3
			c-0.5-1-0.9-2-1.3-2.8c-0.3-0.8-0.6-1.5-0.8-2c-0.2-0.5-0.3-0.8-0.3-0.8c0-0.1-0.1-0.2-0.1-0.3c0-0.1-0.1-0.2-0.1-0.3
			c0-0.1,0-0.2-0.1-0.3C54.8,35.3,54.8,35.2,54.8,35.1 M52.7,25.8c0-0.1,0-0.2-0.1-0.3c0-0.1,0-0.2-0.1-0.3c0-0.1,0-0.2,0-0.3
			c0-0.1,0-0.2,0-0.3c0,0,0-0.3-0.1-0.7c0-0.4-0.1-1.1-0.1-1.8c0-0.7,0-1.6,0-2.5c0.1-0.9,0.2-1.8,0.4-2.8c0.2-0.9,0.4-1.7,0.7-2.5
			c0.3-0.7,0.6-1.3,0.8-1.8c0.3-0.5,0.5-0.9,0.7-1.2c0.2-0.3,0.3-0.4,0.3-0.4c0.3-0.3,0.5-0.6,0.8-0.8c0.3-0.2,0.6-0.3,0.9-0.4
			c0.3-0.1,0.6-0.1,0.8,0c0.2,0.1,0.5,0.2,0.6,0.4c0.2,0.2,0.4,0.5,0.7,0.9c0.3,0.4,0.7,0.8,1.1,1.3c0.4,0.5,0.8,1,1.2,1.5
			c0.4,0.5,0.9,1,1.3,1.5l11.4,13.7c0.1,0.2,0.3,0.3,0.4,0.5c0.1,0.2,0.2,0.3,0.3,0.5c0.1,0.1,0.2,0.3,0.2,0.4
			c0.1,0.1,0.1,0.3,0.1,0.4c0.1,0.2,0.1,0.4,0,0.6c0,0.2-0.1,0.3-0.2,0.4c-0.1,0.1-0.3,0.2-0.5,0.2c-0.2,0-0.5,0-0.7,0l-13.5-2
			c-0.5-0.1-1.1-0.2-1.6-0.2c-0.5-0.1-1.1-0.2-1.6-0.2c-0.5-0.1-1-0.1-1.3-0.2c-0.4-0.1-0.7-0.1-0.9-0.1c-0.2,0-0.4-0.1-0.6-0.3
			c-0.2-0.2-0.4-0.5-0.6-0.8c-0.2-0.3-0.4-0.7-0.5-1.1C52.9,26.7,52.8,26.2,52.7,25.8 M59.3,8.6c-0.1-0.2-0.1-0.4,0-0.6
			c0-0.2,0.1-0.4,0.2-0.7c0.1-0.2,0.3-0.4,0.5-0.6c0.2-0.2,0.4-0.4,0.7-0.5c0,0,0.1-0.1,0.4-0.2c0.3-0.1,0.6-0.3,1.1-0.5
			c0.5-0.2,1-0.3,1.6-0.5c0.6-0.1,1.3-0.2,2.1-0.2c0.7,0,1.5,0,2.2,0.1C68.8,5,69.4,5.2,70,5.3c0.5,0.1,1,0.3,1.3,0.4
			c0.3,0.1,0.5,0.2,0.5,0.2C72.2,6,72.6,6.2,73,6.4c0.4,0.2,0.7,0.4,1,0.6c0.3,0.2,0.5,0.5,0.7,0.7C74.8,7.9,75,8.1,75,8.4
			c0,0,0,0,0,0c0,0,0,0,0,0c0,0,0,0,0,0c0,0,0,0,0,0c0,0.2,0,0.5,0.1,0.9c0,0.4,0.1,0.8,0.1,1.2c0,0.5,0.1,0.9,0.2,1.4
			c0.1,0.5,0.1,1,0.2,1.5l1.6,14.4c0.1,0.5,0,0.9-0.1,1.2c-0.1,0.3-0.2,0.5-0.5,0.5c-0.2,0-0.5-0.1-0.8-0.3
			c-0.3-0.2-0.7-0.6-1.1-1.1l-11-13.9c-0.4-0.5-0.8-1-1.2-1.5c-0.4-0.5-0.8-1-1.2-1.5c-0.4-0.5-0.7-0.9-1-1.3
			c-0.3-0.4-0.5-0.7-0.7-0.9c0,0-0.1-0.1-0.1-0.1c0,0-0.1-0.1-0.1-0.1c0,0,0-0.1-0.1-0.1C59.3,8.7,59.3,8.7,59.3,8.6 M71.3,57.1
			c0-0.1,0-0.1,0-0.2c0-0.1,0-0.1,0-0.2c0,0,0-0.1,0-0.1c0,0,0-0.1,0-0.1c0.1-0.2,0.2-0.5,0.3-0.9c0.1-0.4,0.3-0.8,0.4-1.3
			c0.2-0.5,0.3-1,0.5-1.5c0.2-0.5,0.3-1,0.5-1.5l4.4-13c0.1-0.4,0.3-0.7,0.5-0.9c0.2-0.2,0.5-0.2,0.7-0.1c0.3,0.1,0.5,0.3,0.8,0.7
			c0.3,0.3,0.5,0.8,0.8,1.4l6.9,16.4c0.3,0.6,0.5,1.2,0.8,1.8c0.3,0.6,0.5,1.2,0.8,1.8c0.2,0.6,0.5,1.1,0.6,1.5
			c0.2,0.4,0.3,0.8,0.5,1.1c0,0,0,0,0,0c0,0,0,0,0,0c0,0,0,0,0,0c0,0,0,0,0,0c0.1,0.2,0.1,0.5,0,0.7c-0.1,0.2-0.2,0.5-0.4,0.7
			c-0.2,0.2-0.4,0.4-0.7,0.5c-0.3,0.2-0.6,0.3-1,0.4c0,0-0.2,0-0.5,0.1c-0.3,0-0.8,0.1-1.3,0.1c-0.6,0-1.2,0-2-0.1
			c-0.8-0.1-1.6-0.2-2.5-0.5c-0.9-0.2-1.8-0.6-2.6-0.9c-0.8-0.4-1.6-0.7-2.2-1.1c-0.6-0.4-1.2-0.7-1.6-0.9c-0.4-0.2-0.6-0.4-0.6-0.4
			c-0.4-0.3-0.8-0.6-1.1-0.9c-0.3-0.3-0.7-0.6-0.9-0.9c-0.3-0.3-0.5-0.6-0.7-0.9C71.5,57.7,71.4,57.4,71.3,57.1 M78.6,29.4
			c0-0.1,0-0.1-0.1-0.2c0-0.1,0-0.2,0-0.2c0-0.1,0-0.2,0-0.2c0-0.1,0-0.2,0-0.2l-1.2-14.2c0-0.5-0.1-1-0.1-1.5c0-0.5-0.1-1-0.1-1.4
			c0-0.4-0.1-0.9-0.1-1.2c0-0.4-0.1-0.6-0.1-0.8c0-0.2,0-0.3,0.2-0.4c0.1-0.1,0.4-0.1,0.6-0.1c0.3,0,0.6,0.1,0.9,0.3
			c0.4,0.1,0.8,0.3,1.2,0.6c0,0,0.2,0.1,0.5,0.3c0.3,0.2,0.7,0.5,1.3,0.9c0.5,0.4,1.1,0.9,1.8,1.4c0.7,0.5,1.4,1.2,2.1,1.9
			c0.7,0.7,1.4,1.4,2,2.1c0.6,0.7,1.1,1.3,1.6,1.9c0.4,0.6,0.8,1,1,1.4c0.2,0.3,0.4,0.5,0.4,0.5c0.2,0.3,0.4,0.6,0.5,0.8
			c0.2,0.3,0.3,0.5,0.4,0.8c0.1,0.2,0.2,0.5,0.3,0.7c0.1,0.2,0.2,0.4,0.2,0.6c0,0.1,0.1,0.2,0.1,0.3c0,0.1,0,0.2,0,0.3
			c0,0.1,0,0.1,0,0.2c0,0.1-0.1,0.1-0.1,0.1c-0.1,0.1-0.3,0.2-0.5,0.3c-0.2,0.1-0.4,0.3-0.7,0.4c-0.2,0.2-0.5,0.3-0.8,0.5
			c-0.3,0.2-0.6,0.4-0.8,0.5l-8,5.2c-0.3,0.2-0.5,0.3-0.8,0.3c-0.2,0-0.5-0.1-0.7-0.2c-0.2-0.1-0.4-0.3-0.6-0.6
			C78.8,30,78.7,29.7,78.6,29.4 M81,38.1c-0.1-0.4-0.1-0.7-0.1-0.9c0-0.2,0.1-0.4,0.3-0.5c0.2-0.1,0.4-0.1,0.6,0
			c0.3,0.1,0.6,0.2,1,0.5l12,8c0.4,0.3,0.8,0.6,1.3,0.8c0.4,0.3,0.8,0.5,1.2,0.8c0.4,0.3,0.7,0.5,1,0.7c0.3,0.2,0.5,0.4,0.7,0.5
			c0.1,0,0.1,0.1,0.2,0.2c0.1,0.1,0.1,0.2,0.2,0.2c0.1,0.1,0.1,0.2,0.2,0.3c0,0.1,0.1,0.2,0.1,0.4c0.1,0.2,0.1,0.4,0.1,0.7
			c0,0.2,0.1,0.5,0.1,0.7c0,0.3,0,0.5,0,0.8c0,0.3,0,0.6-0.1,0.8c0,0,0,0.2-0.1,0.5c-0.1,0.3-0.1,0.8-0.3,1.4
			c-0.1,0.6-0.3,1.2-0.5,1.9c-0.2,0.7-0.5,1.4-0.9,2c-0.4,0.7-0.8,1.2-1.2,1.7c-0.4,0.5-0.8,0.9-1.2,1.3c-0.4,0.3-0.7,0.6-0.9,0.8
			c-0.2,0.2-0.4,0.3-0.4,0.3c-0.3,0.2-0.7,0.3-1,0.4c-0.3,0.1-0.6,0.1-0.9,0.1c-0.3,0-0.6-0.1-0.8-0.3c-0.2-0.1-0.4-0.3-0.5-0.6
			c-0.1-0.3-0.3-0.6-0.5-1.1c-0.2-0.4-0.4-1-0.7-1.5c-0.2-0.6-0.5-1.1-0.8-1.8c-0.3-0.6-0.5-1.2-0.8-1.8l-7.2-16.2
			c0-0.1-0.1-0.2-0.1-0.3c0-0.1-0.1-0.2-0.1-0.3c0-0.1-0.1-0.2-0.1-0.2C81,38.2,81,38.1,81,38.1 M81.2,33.9c0-0.2-0.1-0.3-0.1-0.5
			c0-0.1,0-0.3,0.1-0.4c0.1-0.1,0.1-0.3,0.2-0.4c0.1-0.1,0.2-0.2,0.4-0.3l8.3-4.8c0.3-0.2,0.6-0.3,0.8-0.5c0.3-0.2,0.6-0.3,0.8-0.5
			c0.3-0.1,0.5-0.3,0.7-0.4c0.2-0.1,0.4-0.2,0.5-0.3c0.1-0.1,0.3,0,0.5,0.1c0.2,0.1,0.4,0.3,0.7,0.6c0.2,0.3,0.5,0.6,0.8,1
			c0.3,0.4,0.5,0.9,0.8,1.4c0,0,0.1,0.2,0.3,0.6c0.2,0.4,0.4,0.9,0.7,1.6c0.3,0.7,0.6,1.4,0.9,2.3c0.3,0.8,0.7,1.8,0.9,2.7
			c0.3,1,0.5,1.9,0.7,2.7c0.2,0.8,0.3,1.6,0.4,2.3c0.1,0.6,0.2,1.2,0.2,1.5c0,0.4,0.1,0.6,0.1,0.6c0,0.5,0,0.9,0,1.3
			c0,0.4-0.1,0.7-0.2,1c-0.1,0.3-0.2,0.4-0.3,0.5c-0.1,0.1-0.3,0.1-0.5,0c-0.2-0.1-0.4-0.3-0.7-0.5c-0.3-0.2-0.6-0.4-1-0.7
			c-0.4-0.2-0.8-0.5-1.2-0.8c-0.4-0.3-0.8-0.5-1.2-0.8l-11.9-7.5c-0.2-0.1-0.4-0.3-0.6-0.4c-0.2-0.2-0.3-0.3-0.5-0.5
			c-0.1-0.2-0.2-0.3-0.3-0.5C81.4,34.2,81.3,34,81.2,33.9 M100.4,36.2c-1.2-4-2.9-7.9-5-11.4c-2-3.6-4.4-6.9-7.1-9.8
			c-2.6-3-5.6-5.6-8.6-7.7c-3.1-2.1-6.4-3.7-9.7-4.6c-3.4-0.9-6.5-0.9-9.3-0.2c-2.8,0.8-5.3,2.3-7.2,4.6c-2,2.4-3.3,5.5-3.9,9.3
			C49,20.4,49.2,25,50.3,30c1.1,5.1,3.1,10.1,5.7,14.8c2.6,4.7,5.8,8.9,9.4,12.5c3.5,3.5,7.3,6.3,11.2,8.1c3.7,1.8,7.5,2.7,11,2.6
			c3.4-0.2,6.2-1.3,8.5-3.1c2.2-1.8,3.8-4.3,4.9-7.2c1-2.9,1.5-6.2,1.4-9.9C102.2,44.2,101.6,40.3,100.4,36.2"/>
		<path fill="#FFDE11" d="M86.2,34.5c0,0,0.1-0.1,0.3-0.3c0.2-0.2,0.5-0.3,0.8-0.5c0.3-0.2,0.6-0.3,0.9-0.4c0.3-0.1,0.6-0.1,0.8,0
			c0.1,0.1,0.2,0.2,0.3,0.3c0.1,0.1,0.2,0.2,0.3,0.4c0.1,0.1,0.2,0.3,0.2,0.5c0.1,0.2,0.1,0.3,0.2,0.5c0.1,0.2,0.1,0.3,0.1,0.5
			c0,0.2,0,0.3,0,0.5c0,0.1,0,0.3-0.1,0.4c0,0.1-0.1,0.2-0.2,0.2c-0.2,0.1-0.5,0-0.9-0.2c-0.4-0.2-0.8-0.4-1.3-0.7
			c-0.4-0.3-0.8-0.6-1.1-0.8C86.4,34.6,86.2,34.5,86.2,34.5 M98.6,36c-0.3-0.9-0.6-1.9-0.9-2.7c-0.3-0.8-0.7-1.6-0.9-2.3
			c-0.3-0.6-0.5-1.2-0.7-1.6c-0.2-0.4-0.3-0.6-0.3-0.6c-0.3-0.5-0.5-1-0.8-1.4c-0.3-0.4-0.5-0.8-0.8-1c-0.2-0.3-0.5-0.5-0.7-0.6
			c-0.2-0.1-0.4-0.2-0.5-0.1c-0.1,0.1-0.3,0.2-0.5,0.3c-0.2,0.1-0.4,0.3-0.7,0.4c-0.3,0.2-0.5,0.3-0.8,0.5c-0.3,0.2-0.6,0.3-0.8,0.5
			l-8.3,4.8c-0.2,0.1-0.3,0.2-0.4,0.3c-0.1,0.1-0.2,0.2-0.2,0.4c-0.1,0.1-0.1,0.3-0.1,0.4c0,0.1,0,0.3,0.1,0.5
			c0,0.2,0.1,0.3,0.2,0.5c0.1,0.2,0.2,0.3,0.3,0.5c0.1,0.2,0.3,0.3,0.5,0.5c0.2,0.2,0.4,0.3,0.6,0.4l11.9,7.5
			c0.4,0.3,0.8,0.5,1.2,0.8c0.4,0.3,0.8,0.5,1.2,0.8c0.4,0.2,0.7,0.5,1,0.7c0.3,0.2,0.5,0.3,0.7,0.5c0.2,0.1,0.3,0.1,0.5,0
			c0.1-0.1,0.3-0.3,0.3-0.5c0.1-0.3,0.2-0.6,0.2-1c0-0.4,0-0.8,0-1.3c0,0,0-0.2-0.1-0.6c0-0.4-0.1-0.9-0.2-1.5
			c-0.1-0.6-0.2-1.4-0.4-2.3C99.1,37.9,98.9,37,98.6,36"/>
		<path fill="#FFDE11" d="M85.7,42.5c0,0,0.2,0.1,0.5,0.3c0.3,0.2,0.7,0.4,1.2,0.7c0.4,0.3,0.9,0.6,1.3,0.9c0.4,0.3,0.7,0.7,0.9,1
			c0,0,0,0.1,0,0.1c0,0,0,0.1,0,0.1c0,0,0,0.1,0,0.1c0,0,0,0.1,0,0.1c0.1,0.3,0.1,0.6,0,0.8c0,0.3-0.2,0.5-0.3,0.7
			c-0.1,0.2-0.3,0.3-0.5,0.3c-0.2,0-0.4,0-0.6-0.2c-0.2-0.2-0.5-0.6-0.8-1.1c-0.3-0.5-0.6-1.1-0.8-1.7c-0.3-0.6-0.5-1.1-0.7-1.5
			C85.8,42.7,85.7,42.5,85.7,42.5 M99.6,49c0-0.1-0.1-0.3-0.1-0.4c0-0.1-0.1-0.2-0.2-0.3c-0.1-0.1-0.1-0.2-0.2-0.2
			c-0.1-0.1-0.1-0.1-0.2-0.2c-0.2-0.1-0.4-0.3-0.7-0.5c-0.3-0.2-0.6-0.4-1-0.7c-0.4-0.3-0.8-0.5-1.2-0.8c-0.4-0.3-0.8-0.6-1.3-0.8
			l-12-8c-0.4-0.2-0.7-0.4-1-0.5c-0.3-0.1-0.5-0.1-0.6,0c-0.2,0.1-0.3,0.3-0.3,0.5c0,0.2,0,0.6,0.1,0.9c0,0.1,0,0.1,0.1,0.2
			c0,0.1,0.1,0.2,0.1,0.2c0,0.1,0.1,0.2,0.1,0.3c0,0.1,0.1,0.2,0.1,0.3l7.2,16.2c0.3,0.6,0.5,1.2,0.8,1.8c0.3,0.6,0.5,1.2,0.8,1.8
			c0.2,0.6,0.5,1.1,0.7,1.5c0.2,0.4,0.4,0.8,0.5,1.1c0.1,0.3,0.3,0.5,0.5,0.6c0.2,0.1,0.5,0.2,0.8,0.3c0.3,0,0.6,0,0.9-0.1
			c0.3-0.1,0.7-0.2,1-0.4c0,0,0.1-0.1,0.4-0.3c0.2-0.2,0.5-0.4,0.9-0.8c0.4-0.3,0.8-0.8,1.2-1.3c0.4-0.5,0.8-1.1,1.2-1.7
			c0.4-0.7,0.6-1.3,0.9-2c0.2-0.7,0.4-1.3,0.5-1.9c0.1-0.6,0.2-1,0.3-1.4c0.1-0.3,0.1-0.5,0.1-0.5c0-0.3,0.1-0.6,0.1-0.8
			c0-0.3,0-0.5,0-0.8c0-0.3,0-0.5-0.1-0.7C99.7,49.4,99.6,49.2,99.6,49"/>
		<path fill="#FFDE11" d="M78.4,48.4c-0.1-0.4-0.1-0.8,0-1.3c0.1-0.5,0.2-1,0.4-1.4c0.1-0.4,0.3-0.9,0.4-1.1
			c0.1-0.3,0.2-0.5,0.2-0.5s0.1,0.2,0.2,0.4c0.1,0.3,0.3,0.6,0.5,1.1c0.2,0.4,0.4,0.9,0.6,1.4c0.2,0.5,0.3,1,0.5,1.4
			c0,0.1,0.1,0.2,0.1,0.3c0,0.1,0,0.2,0.1,0.3c0,0.1,0,0.2,0,0.3c0,0.1,0,0.1,0,0.2c-0.1,0.3-0.2,0.4-0.5,0.5
			c-0.2,0.1-0.5,0-0.8-0.1c-0.3-0.1-0.6-0.3-0.9-0.5C78.8,49.2,78.6,48.9,78.4,48.4C78.5,48.5,78.5,48.5,78.4,48.4
			C78.5,48.5,78.5,48.5,78.4,48.4C78.5,48.5,78.5,48.5,78.4,48.4C78.5,48.4,78.4,48.4,78.4,48.4 M89.9,62.1
			C89.8,62.1,89.8,62.1,89.9,62.1C89.8,62.1,89.8,62,89.9,62.1c0-0.1,0-0.1,0-0.1c0,0,0,0,0,0c-0.1-0.3-0.3-0.6-0.5-1.1
			c-0.2-0.4-0.4-1-0.6-1.5c-0.2-0.6-0.5-1.2-0.8-1.8c-0.3-0.6-0.5-1.2-0.8-1.8l-6.9-16.4c-0.2-0.6-0.5-1-0.8-1.4
			c-0.3-0.3-0.5-0.6-0.8-0.7c-0.3-0.1-0.5-0.1-0.7,0.1c-0.2,0.2-0.4,0.5-0.5,0.9l-4.4,13c-0.2,0.5-0.3,1-0.5,1.5
			c-0.2,0.5-0.3,1-0.5,1.5c-0.2,0.5-0.3,0.9-0.4,1.3c-0.1,0.4-0.2,0.7-0.3,0.9c0,0,0,0.1,0,0.1c0,0,0,0.1,0,0.1c0,0,0,0.1,0,0.2
			c0,0.1,0,0.1,0,0.2c0.1,0.2,0.2,0.5,0.4,0.8c0.2,0.3,0.4,0.6,0.7,0.9c0.3,0.3,0.6,0.6,0.9,0.9c0.3,0.3,0.7,0.6,1.1,0.9
			c0,0,0.2,0.1,0.6,0.4c0.4,0.2,0.9,0.6,1.6,0.9c0.6,0.4,1.4,0.7,2.2,1.1c0.8,0.4,1.7,0.7,2.6,0.9c0.9,0.2,1.7,0.4,2.5,0.5
			c0.8,0.1,1.4,0.1,2,0.1c0.6,0,1-0.1,1.3-0.1c0.3,0,0.5-0.1,0.5-0.1c0.4-0.1,0.7-0.2,1-0.4c0.3-0.2,0.5-0.3,0.7-0.5
			c0.2-0.2,0.3-0.4,0.4-0.7C89.9,62.6,89.9,62.4,89.9,62.1"/>
		<path fill="#FFDE11" d="M68,38.8c0-0.1,0-0.2-0.1-0.3c0-0.1,0-0.2,0-0.2c0-0.1,0-0.2,0-0.2c0-0.1,0-0.1,0.1-0.2
			c0.1-0.2,0.4-0.3,0.9-0.4c0.4-0.1,0.9-0.1,1.4,0c0.5,0,0.9,0.1,1.3,0.1c0.3,0,0.6,0.1,0.6,0.1s-0.1,0.2-0.2,0.5
			c-0.1,0.3-0.3,0.8-0.4,1.2c-0.2,0.4-0.4,0.9-0.6,1.2c-0.2,0.3-0.5,0.6-0.7,0.6c-0.2,0-0.4-0.1-0.6-0.2c-0.2-0.1-0.4-0.3-0.6-0.6
			c-0.2-0.2-0.4-0.5-0.5-0.8C68.2,39.4,68.1,39.1,68,38.8 M76.3,35.4c-0.1-0.2-0.2-0.4-0.3-0.6c-0.1-0.2-0.3-0.4-0.5-0.5
			c-0.2-0.1-0.4-0.3-0.6-0.4c-0.2-0.1-0.5-0.2-0.8-0.2l-13.4-1.4c-0.5-0.1-1-0.1-1.6-0.2c-0.5-0.1-1.1-0.1-1.6-0.2
			c-0.5-0.1-1-0.1-1.3-0.2c-0.4,0-0.7-0.1-1-0.1c-0.2,0-0.4,0-0.5,0.2c-0.1,0.2-0.2,0.4-0.2,0.7c0,0.3-0.1,0.7,0,1.1
			c0,0.4,0.1,0.9,0.2,1.4c0,0.1,0,0.2,0.1,0.3c0,0.1,0,0.2,0.1,0.3c0,0.1,0.1,0.2,0.1,0.3c0,0.1,0.1,0.2,0.1,0.3
			c0,0,0.1,0.3,0.3,0.8c0.2,0.5,0.4,1.2,0.8,2c0.3,0.8,0.8,1.8,1.3,2.8c0.5,1,1.1,2.2,1.8,3.3c0.7,1.1,1.4,2.2,2.1,3.1
			c0.7,0.9,1.3,1.8,1.9,2.5c0.6,0.7,1.1,1.2,1.4,1.6c0.3,0.4,0.5,0.6,0.5,0.6c0.5,0.5,1,0.9,1.4,1.2c0.4,0.3,0.9,0.6,1.2,0.8
			c0.4,0.2,0.7,0.3,0.9,0.2c0.2,0,0.4-0.1,0.5-0.3c0.1-0.2,0.2-0.5,0.3-0.9c0.1-0.4,0.3-0.8,0.5-1.3c0.2-0.5,0.4-1,0.6-1.5
			c0.2-0.5,0.4-1,0.6-1.5l5-12.6c0.1-0.2,0.1-0.3,0.1-0.4c0-0.1,0.1-0.3,0.1-0.4c0-0.1,0-0.3,0-0.4C76.4,35.7,76.3,35.5,76.3,35.4"
			/>
		<path fill="#FFDE11" d="M64.7,25.7c-0.1-0.3-0.1-0.5-0.1-0.8c0-0.3,0.1-0.5,0.2-0.7c0.1-0.2,0.2-0.3,0.4-0.4
			c0.1-0.1,0.3-0.1,0.5-0.1c0.3,0.1,0.6,0.4,1.1,0.8c0.4,0.4,0.9,0.9,1.3,1.4c0.4,0.5,0.8,1,1.1,1.3c0.3,0.4,0.5,0.6,0.5,0.6
			s-0.2,0-0.5,0c-0.3,0-0.8-0.1-1.2-0.2c-0.5-0.1-1-0.2-1.4-0.4c-0.5-0.2-0.9-0.4-1.1-0.6c-0.1-0.1-0.1-0.1-0.2-0.2
			c-0.1-0.1-0.1-0.2-0.1-0.2c0-0.1-0.1-0.2-0.1-0.2C64.7,25.9,64.7,25.8,64.7,25.7 M75.1,30.9c0-0.1-0.1-0.3-0.1-0.4
			c-0.1-0.1-0.1-0.3-0.2-0.4c-0.1-0.1-0.2-0.3-0.3-0.5c-0.1-0.2-0.2-0.3-0.4-0.5L62.7,15.5c-0.4-0.5-0.8-1-1.3-1.5
			c-0.4-0.5-0.8-1-1.2-1.5c-0.4-0.5-0.8-0.9-1.1-1.3c-0.3-0.4-0.6-0.7-0.7-0.9c-0.2-0.2-0.4-0.4-0.6-0.4c-0.2-0.1-0.5-0.1-0.8,0
			c-0.3,0.1-0.6,0.2-0.9,0.4c-0.3,0.2-0.6,0.5-0.8,0.8c0,0-0.1,0.1-0.3,0.4c-0.2,0.3-0.4,0.7-0.7,1.2c-0.3,0.5-0.6,1.1-0.8,1.8
			c-0.3,0.7-0.5,1.6-0.7,2.5c-0.2,0.9-0.3,1.9-0.4,2.8c-0.1,0.9-0.1,1.8,0,2.5c0,0.7,0.1,1.4,0.1,1.8c0,0.4,0.1,0.7,0.1,0.7
			c0,0.1,0,0.2,0,0.3c0,0.1,0,0.2,0,0.3c0,0.1,0,0.2,0.1,0.3c0,0.1,0,0.2,0.1,0.3c0.1,0.5,0.2,1,0.4,1.4c0.2,0.4,0.3,0.8,0.5,1.1
			c0.2,0.3,0.4,0.6,0.6,0.8c0.2,0.2,0.4,0.3,0.6,0.3c0.2,0,0.6,0.1,0.9,0.1c0.4,0.1,0.9,0.1,1.3,0.2c0.5,0.1,1,0.1,1.6,0.2
			c0.5,0.1,1.1,0.2,1.6,0.2l13.5,2c0.3,0,0.5,0,0.7,0c0.2,0,0.4-0.1,0.5-0.2c0.1-0.1,0.2-0.2,0.2-0.4C75.2,31.3,75.2,31.2,75.1,30.9
			"/>
		<path fill="#FFDE11" d="M70.7,18.5C70.7,18.5,70.7,18.5,70.7,18.5C70.7,18.5,70.7,18.5,70.7,18.5C70.7,18.5,70.7,18.5,70.7,18.5
			c0-0.1,0-0.1,0-0.1c0-0.3,0-0.5,0.2-0.7c0.2-0.2,0.4-0.3,0.6-0.3c0.3,0,0.5,0,0.8,0.2c0.3,0.1,0.5,0.3,0.7,0.6
			c0,0.1,0.1,0.1,0.1,0.2c0,0.1,0.1,0.1,0.1,0.2c0,0.1,0.1,0.2,0.1,0.2c0,0.1,0.1,0.2,0.1,0.3c0.1,0.4,0.2,0.8,0.2,1.2
			c0.1,0.4,0.1,0.9,0.1,1.2c0,0.4,0,0.7,0,1c0,0.2,0,0.4,0,0.4s-0.2-0.2-0.4-0.5c-0.3-0.3-0.6-0.8-1-1.2c-0.4-0.5-0.8-1-1.1-1.5
			C71,19.3,70.8,18.8,70.7,18.5 M75,8.4c-0.1-0.2-0.2-0.4-0.4-0.6c-0.2-0.2-0.4-0.5-0.7-0.7c-0.3-0.2-0.6-0.4-1-0.6
			c-0.4-0.2-0.8-0.4-1.2-0.5c0,0-0.2-0.1-0.5-0.2C71,5.6,70.5,5.4,70,5.3c-0.6-0.1-1.2-0.3-1.9-0.4c-0.7-0.1-1.4-0.2-2.2-0.1
			c-0.7,0-1.4,0.1-2.1,0.2c-0.6,0.1-1.2,0.3-1.6,0.5c-0.5,0.2-0.8,0.3-1.1,0.5c-0.3,0.1-0.4,0.2-0.4,0.2c-0.3,0.2-0.5,0.3-0.7,0.5
			c-0.2,0.2-0.4,0.4-0.5,0.6c-0.1,0.2-0.2,0.4-0.2,0.7c0,0.2,0,0.4,0,0.6c0,0,0,0.1,0,0.1c0,0,0,0.1,0.1,0.1c0,0,0,0.1,0.1,0.1
			c0,0,0.1,0.1,0.1,0.1c0.2,0.2,0.4,0.5,0.7,0.9c0.3,0.4,0.6,0.8,1,1.3c0.4,0.5,0.8,1,1.2,1.5c0.4,0.5,0.8,1,1.2,1.5l11,13.9
			c0.4,0.5,0.7,0.8,1.1,1.1c0.3,0.2,0.6,0.3,0.8,0.3c0.2,0,0.4-0.2,0.5-0.5c0.1-0.3,0.1-0.7,0.1-1.2l-1.6-14.4
			c-0.1-0.5-0.1-1-0.2-1.5c-0.1-0.5-0.1-1-0.2-1.4c0-0.5-0.1-0.9-0.1-1.2c0-0.4-0.1-0.6-0.1-0.9c0,0,0,0,0,0C75.1,8.5,75,8.4,75,8.4
			C75,8.4,75,8.4,75,8.4C75,8.4,75,8.4,75,8.4"/>
		<path fill="#FFDE11" d="M81.2,26.2c0,0,0-0.2-0.1-0.6c0-0.4-0.1-0.9-0.1-1.4c0-0.5,0-1,0-1.4c0-0.4,0.1-0.7,0.3-0.9
			c0.1-0.1,0.3-0.1,0.6,0c0.2,0.1,0.5,0.3,0.7,0.5c0.2,0.2,0.5,0.5,0.7,0.7c0.2,0.3,0.3,0.5,0.4,0.8c0,0,0,0.1,0,0.1
			c0,0,0,0.1,0,0.1c0,0,0,0.1,0,0.1c0,0,0,0.1,0,0.1c0,0.3-0.1,0.5-0.4,0.7c-0.2,0.2-0.5,0.4-0.8,0.6c-0.3,0.2-0.6,0.3-0.8,0.4
			C81.3,26.2,81.2,26.2,81.2,26.2 M91.8,22.9c-0.1-0.2-0.1-0.4-0.2-0.6c-0.1-0.2-0.2-0.5-0.3-0.7c-0.1-0.2-0.3-0.5-0.4-0.8
			c-0.2-0.3-0.3-0.5-0.5-0.8c0,0-0.1-0.2-0.4-0.5c-0.2-0.3-0.6-0.8-1-1.4c-0.4-0.6-1-1.2-1.6-1.9c-0.6-0.7-1.3-1.4-2-2.1
			c-0.7-0.7-1.4-1.3-2.1-1.9c-0.7-0.5-1.3-1-1.8-1.4c-0.5-0.4-1-0.7-1.3-0.9c-0.3-0.2-0.5-0.3-0.5-0.3c-0.4-0.3-0.8-0.5-1.2-0.6
			c-0.4-0.1-0.7-0.2-0.9-0.3c-0.3,0-0.5,0-0.6,0.1c-0.1,0.1-0.2,0.2-0.2,0.4c0,0.2,0,0.5,0.1,0.8c0,0.4,0.1,0.8,0.1,1.2
			c0,0.4,0.1,0.9,0.1,1.4c0,0.5,0.1,1,0.1,1.5l1.2,14.2c0,0.1,0,0.2,0,0.2c0,0.1,0,0.2,0,0.2c0,0.1,0,0.2,0,0.2c0,0.1,0,0.1,0.1,0.2
			c0.1,0.4,0.2,0.7,0.4,0.9c0.2,0.3,0.4,0.5,0.6,0.6c0.2,0.1,0.4,0.2,0.7,0.2c0.2,0,0.5-0.1,0.8-0.3l8-5.2c0.3-0.2,0.5-0.4,0.8-0.5
			c0.3-0.2,0.5-0.3,0.8-0.5c0.2-0.2,0.5-0.3,0.7-0.4c0.2-0.1,0.4-0.2,0.5-0.3c0,0,0.1-0.1,0.1-0.1c0-0.1,0-0.1,0-0.2
			c0-0.1,0-0.2,0-0.3C91.9,23.2,91.8,23.1,91.8,22.9"/>
		<path fill="#FFFFFF" d="M90.1,35c-0.1-0.2-0.1-0.3-0.2-0.5c-0.1-0.2-0.2-0.3-0.2-0.5c-0.1-0.1-0.2-0.3-0.3-0.4
			c-0.1-0.1-0.2-0.2-0.3-0.3c-0.2-0.1-0.5-0.1-0.8,0c-0.3,0.1-0.6,0.2-0.9,0.4c-0.3,0.2-0.6,0.4-0.8,0.5c-0.2,0.2-0.3,0.3-0.3,0.3
			s0.2,0.1,0.5,0.4c0.3,0.2,0.7,0.5,1.1,0.8c0.4,0.3,0.9,0.5,1.3,0.7c0.4,0.2,0.7,0.3,0.9,0.2c0.1,0,0.2-0.1,0.2-0.2
			c0-0.1,0.1-0.2,0.1-0.4c0-0.1,0-0.3,0-0.5C90.2,35.3,90.1,35.2,90.1,35"/>
		<path fill="#FFFFFF" d="M89.6,45.7C89.6,45.7,89.6,45.7,89.6,45.7c0-0.1,0-0.1-0.1-0.2c0,0,0-0.1,0-0.1c0,0,0-0.1,0-0.1
			c-0.2-0.3-0.5-0.6-0.9-1c-0.4-0.3-0.8-0.7-1.3-0.9c-0.4-0.3-0.9-0.5-1.2-0.7c-0.3-0.2-0.5-0.3-0.5-0.3s0.1,0.3,0.3,0.7
			c0.2,0.4,0.4,0.9,0.7,1.5c0.3,0.6,0.6,1.2,0.8,1.7c0.3,0.5,0.6,0.9,0.8,1.1c0.2,0.2,0.4,0.2,0.6,0.2c0.2,0,0.4-0.2,0.5-0.3
			c0.1-0.2,0.2-0.4,0.3-0.7C89.7,46.3,89.7,46,89.6,45.7"/>
		<path fill="#FFFFFF" d="M81.1,48.4C81,48,80.8,47.5,80.7,47c-0.2-0.5-0.4-1-0.6-1.4c-0.2-0.4-0.4-0.8-0.5-1.1
			c-0.1-0.3-0.2-0.4-0.2-0.4s-0.1,0.2-0.2,0.5c-0.1,0.3-0.3,0.7-0.4,1.1c-0.1,0.5-0.3,0.9-0.4,1.4c-0.1,0.5-0.1,0.9,0,1.3
			c0,0,0,0,0,0c0,0,0,0,0,0c0,0,0,0,0,0c0,0,0,0,0,0c0.1,0.3,0.3,0.6,0.6,0.9c0.3,0.2,0.6,0.4,0.9,0.5c0.3,0.1,0.6,0.1,0.8,0.1
			c0.2-0.1,0.4-0.2,0.5-0.5c0-0.1,0-0.1,0-0.2c0-0.1,0-0.2,0-0.3c0-0.1,0-0.2-0.1-0.3C81.2,48.6,81.2,48.5,81.1,48.4"/>
		<path fill="#FFFFFF" d="M72.1,37.6c0,0-0.2,0-0.6-0.1c-0.3,0-0.8-0.1-1.3-0.1c-0.5,0-1,0-1.4,0c-0.4,0.1-0.7,0.2-0.9,0.4
			c0,0.1-0.1,0.1-0.1,0.2c0,0.1,0,0.1,0,0.2c0,0.1,0,0.2,0,0.2c0,0.1,0,0.2,0.1,0.3c0.1,0.3,0.2,0.6,0.3,0.8
			c0.2,0.3,0.3,0.6,0.5,0.8c0.2,0.2,0.4,0.4,0.6,0.6c0.2,0.1,0.4,0.2,0.6,0.2c0.3,0,0.5-0.3,0.7-0.6c0.2-0.3,0.4-0.8,0.6-1.2
			c0.2-0.4,0.3-0.9,0.4-1.2C72,37.9,72.1,37.6,72.1,37.6"/>
		<path fill="#FFFFFF" d="M69.5,27.9c0,0-0.2-0.2-0.5-0.6c-0.3-0.4-0.7-0.8-1.1-1.3c-0.4-0.5-0.9-1-1.3-1.4
			c-0.4-0.4-0.8-0.7-1.1-0.8c-0.2-0.1-0.4,0-0.5,0.1c-0.1,0.1-0.3,0.2-0.4,0.4c-0.1,0.2-0.1,0.4-0.2,0.7c0,0.3,0,0.5,0.1,0.8
			c0,0.1,0,0.2,0.1,0.3c0,0.1,0.1,0.2,0.1,0.2c0,0.1,0.1,0.2,0.1,0.2c0.1,0.1,0.1,0.1,0.2,0.2c0.2,0.3,0.6,0.5,1.1,0.6
			c0.5,0.2,1,0.3,1.4,0.4c0.5,0.1,0.9,0.1,1.2,0.2C69.3,27.9,69.5,27.9,69.5,27.9"/>
		<path fill="#FFFFFF" d="M73.4,19.2c0-0.1-0.1-0.2-0.1-0.3c0-0.1-0.1-0.2-0.1-0.2c0-0.1-0.1-0.2-0.1-0.2c0-0.1-0.1-0.1-0.1-0.2
			c-0.2-0.3-0.4-0.5-0.7-0.6c-0.3-0.1-0.6-0.2-0.8-0.2c-0.3,0-0.5,0.1-0.6,0.3c-0.2,0.2-0.2,0.4-0.2,0.7c0,0,0,0,0,0c0,0,0,0,0,0
			c0,0,0,0,0,0c0,0,0,0,0,0c0.1,0.3,0.3,0.8,0.6,1.2c0.3,0.5,0.7,1,1.1,1.5c0.4,0.5,0.7,0.9,1,1.2c0.3,0.3,0.4,0.5,0.4,0.5
			s0-0.1,0-0.4c0-0.2,0-0.6,0-1c0-0.4-0.1-0.8-0.1-1.2C73.6,20,73.5,19.5,73.4,19.2"/>
		<path fill="#FFFFFF" d="M83.5,24c-0.1-0.3-0.2-0.5-0.4-0.8c-0.2-0.3-0.4-0.5-0.7-0.7c-0.2-0.2-0.5-0.4-0.7-0.5
			c-0.2-0.1-0.4-0.1-0.6,0c-0.2,0.1-0.2,0.4-0.3,0.9c0,0.4,0,0.9,0,1.4c0,0.5,0.1,1,0.1,1.4c0,0.4,0.1,0.6,0.1,0.6s0.2-0.1,0.4-0.2
			c0.2-0.1,0.5-0.2,0.8-0.4c0.3-0.2,0.6-0.4,0.8-0.6c0.2-0.2,0.4-0.5,0.4-0.7c0,0,0-0.1,0-0.1c0,0,0-0.1,0-0.1
			C83.6,24.1,83.6,24.1,83.5,24C83.6,24,83.5,24,83.5,24"/>
	</g>
</g>
<g>
	<path fill="#90BB40" d="M32.5,40.6c12.7-3.1,20.5,6.1,20.7,13.7c0.2,7.6-6.8,15.6-19.9,13.7C16.9,65.7,0,47.8,0,47.8
		S19.7,43.8,32.5,40.6z"/>
	<g>
		<path fill="#FFF0C2" d="M6,49.7c3.5,1.7,7.1,3.1,10.7,4.3c1.8,0.6,3.7,1.2,5.5,1.6c1.8,0.5,3.7,0.9,5.6,1.1
			c1.9,0.3,3.8,0.5,5.6,0.5c1.9,0.1,3.8,0,5.6-0.2c3.7-0.4,7.4-1.4,10.8-3c-3.2,2.2-6.9,3.5-10.7,4.1c-1.9,0.3-3.8,0.4-5.8,0.4
			c-1.9,0-3.9-0.2-5.8-0.5c-1.9-0.3-3.8-0.7-5.7-1.2c-1.9-0.5-3.7-1.1-5.6-1.9c-1.8-0.7-3.6-1.5-5.4-2.4C9.4,51.8,7.7,50.8,6,49.7z"
			/>
		<path fill="#FFF0C2" d="M25.1,54.2c-0.1-0.4-0.2-0.8-0.4-1.1c-0.2-0.3-0.4-0.6-0.7-0.9c-0.5-0.5-1.1-1-1.7-1.5
			c-0.6-0.4-1.3-0.8-1.9-1.3c-0.7-0.4-1.3-0.8-2-1.3c0.8,0.1,1.6,0.3,2.3,0.5c0.8,0.3,1.5,0.7,2.2,1.1c0.7,0.5,1.3,1.1,1.8,1.8
			c0.2,0.4,0.4,0.8,0.5,1.2C25.2,53.3,25.2,53.8,25.1,54.2z"/>
		<path fill="#FFF0C2" d="M36.2,54.2c-0.2-1.1-0.8-2.1-1.5-2.9c-0.7-0.8-1.5-1.5-2.4-2.1c-0.9-0.6-1.9-1.1-2.9-1.5
			c-1-0.4-2-0.8-3.1-1.3c1.1,0,2.2,0.2,3.3,0.5c1.1,0.3,2.2,0.8,3.1,1.4c1,0.6,1.9,1.5,2.5,2.5C36,51.8,36.4,53,36.2,54.2z"/>
		<path fill="#FFF0C2" d="M44.5,54.2c-0.3-1.1-0.6-2.2-1-3.3c-0.4-1.1-0.9-2.1-1.4-3c-0.6-0.9-1.3-1.8-2.1-2.5
			c-0.8-0.7-1.7-1.4-2.7-1.9c1.1,0.1,2.2,0.6,3.2,1.3c1,0.7,1.8,1.6,2.4,2.6c0.6,1,1.1,2.2,1.3,3.3C44.6,51.8,44.7,53,44.5,54.2z"/>
		<path fill="#FFF0C2" d="M31.7,61c0.1,0.3,0,0.7-0.1,1c-0.2,0.3-0.4,0.6-0.7,0.8c-0.5,0.4-1.2,0.6-1.8,0.8
			c-0.6,0.1-1.3,0.1-1.9,0.1c-0.6-0.1-1.2-0.2-1.8-0.5c0.6-0.2,1.2-0.3,1.8-0.4c0.6-0.1,1.1-0.2,1.7-0.3c0.5-0.1,1.1-0.2,1.6-0.4
			c0.2-0.1,0.5-0.2,0.7-0.4C31.4,61.5,31.6,61.3,31.7,61z"/>
		<path fill="#FFF0C2" d="M41.4,61c0.2,0.3,0.2,0.6,0.2,1c0,0.3-0.1,0.7-0.3,1c-0.3,0.6-0.7,1.1-1.2,1.5c-0.5,0.4-1,0.7-1.6,0.9
			c-0.6,0.2-1.2,0.3-1.8,0.3c0.5-0.4,1-0.8,1.4-1.1c0.5-0.3,0.9-0.7,1.4-1c0.4-0.3,0.8-0.7,1.2-1.1C40.9,62.1,41.3,61.6,41.4,61z"/>
	</g>
</g>
<g>
	<path fill="#90BB40" d="M29.8,58.3c7.9-10.4,19.8-8.1,24.7-2.4c4.9,5.7,4.5,16.5-6.8,23.2c-14.3,8.5-38.7,5.2-38.7,5.2
		S21.9,68.8,29.8,58.3z"/>
	<g>
		<path fill="#FFF0C2" d="M14.9,82c3.8-0.9,7.5-2,11.1-3.4c1.8-0.7,3.6-1.4,5.3-2.2c1.7-0.8,3.4-1.7,5.1-2.6c1.6-0.9,3.2-2,4.7-3.1
			c1.5-1.1,2.9-2.4,4.3-3.7c2.7-2.6,4.9-5.7,6.6-9.1c-1.1,3.7-3.1,7-5.7,9.9c-1.3,1.4-2.7,2.7-4.2,4c-1.5,1.2-3.1,2.3-4.8,3.3
			c-1.7,1-3.4,1.8-5.2,2.6c-1.8,0.8-3.6,1.5-5.5,2c-1.9,0.6-3.8,1.1-5.7,1.5C18.8,81.5,16.9,81.8,14.9,82z"/>
		<path fill="#FFF0C2" d="M32.6,73.5c-0.3-0.3-0.7-0.5-1-0.6c-0.4-0.1-0.7-0.2-1.1-0.3c-0.7-0.1-1.5-0.1-2.2-0.1
			c-0.8,0-1.5,0.1-2.3,0.2c-0.8,0.1-1.6,0.2-2.4,0.3c0.7-0.5,1.4-0.8,2.2-1.1c0.8-0.3,1.6-0.4,2.4-0.5c0.8,0,1.7,0,2.5,0.3
			c0.4,0.1,0.8,0.4,1.2,0.6C32.1,72.8,32.4,73.1,32.6,73.5z"/>
		<path fill="#FFF0C2" d="M41.2,66.5c-0.9-0.7-1.9-1.1-3-1.4c-1.1-0.2-2.1-0.2-3.2-0.1c-1.1,0.1-2.1,0.3-3.2,0.6
			c-1.1,0.3-2.1,0.6-3.2,0.9c0.9-0.7,1.8-1.3,2.9-1.7c1-0.4,2.2-0.8,3.3-0.9c1.2-0.1,2.4,0,3.5,0.4C39.6,64.7,40.7,65.5,41.2,66.5z"
			/>
		<path fill="#FFF0C2" d="M47.7,61.3c-0.9-0.7-1.9-1.4-2.8-1.9c-1-0.6-2-1.1-3-1.4c-1-0.4-2.1-0.6-3.2-0.7c-1.1-0.1-2.2,0-3.3,0.2
			c1-0.6,2.1-1,3.3-1c1.2-0.1,2.4,0.1,3.6,0.5c1.1,0.4,2.2,1,3.1,1.8C46.3,59.4,47.1,60.3,47.7,61.3z"/>
		<path fill="#FFF0C2" d="M42,74.6c0.3,0.2,0.5,0.5,0.6,0.9c0.1,0.3,0.1,0.7,0,1c-0.2,0.7-0.5,1.2-0.9,1.7c-0.4,0.5-0.9,0.9-1.4,1.2
			c-0.5,0.3-1.1,0.6-1.7,0.8c0.4-0.5,0.8-1,1.1-1.4c0.4-0.4,0.8-0.9,1.1-1.3c0.4-0.4,0.7-0.9,0.9-1.3c0.1-0.2,0.2-0.5,0.3-0.7
			C42.1,75.2,42.1,74.9,42,74.6z"/>
		<path fill="#FFF0C2" d="M49.5,68.5c0.3,0.1,0.6,0.4,0.8,0.7c0.2,0.3,0.3,0.6,0.4,0.9c0.2,0.7,0.1,1.3,0,1.9
			c-0.1,0.6-0.4,1.2-0.7,1.7c-0.3,0.5-0.7,1-1.2,1.4c0.1-0.6,0.3-1.2,0.4-1.7c0.2-0.6,0.3-1.1,0.4-1.6c0.1-0.5,0.2-1.1,0.2-1.6
			C49.9,69.7,49.8,69.1,49.5,68.5z"/>
	</g>
</g>
</svg>
